<svg width="160" height="160" viewBox="0 0 160 160" fill="none" xmlns="http://www.w3.org/2000/svg">
<g filter="url(#filter0_d_1_12)">
<rect x="40" y="20" width="80" height="80" rx="24" fill="#6B63D9" shape-rendering="crispEdges"/>
<path d="M70.25 68.25C67.95 68.25 66 67.45 64.4 65.85C62.8 64.25 62 62.3 62 60C62 57.7 62.8 55.75 64.4 54.15C66 52.55 67.95 51.75 70.25 51.75C71.175 51.75 72.0625 51.9125 72.9125 52.2375C73.7625 52.5625 74.525 53.025 75.2 53.625L77.75 55.95L75.5 57.975L73.175 55.875C72.775 55.525 72.325 55.25 71.825 55.05C71.325 54.85 70.8 54.75 70.25 54.75C68.8 54.75 67.5625 55.2625 66.5375 56.2875C65.5125 57.3125 65 58.55 65 60C65 61.45 65.5125 62.6875 66.5375 63.7125C67.5625 64.7375 68.8 65.25 70.25 65.25C70.8 65.25 71.325 65.15 71.825 64.95C72.325 64.75 72.775 64.475 73.175 64.125L84.8 53.625C85.475 53.025 86.2375 52.5625 87.0875 52.2375C87.9375 51.9125 88.825 51.75 89.75 51.75C92.05 51.75 94 52.55 95.6 54.15C97.2 55.75 98 57.7 98 60C98 62.3 97.2 64.25 95.6 65.85C94 67.45 92.05 68.25 89.75 68.25C88.825 68.25 87.9375 68.0875 87.0875 67.7625C86.2375 67.4375 85.475 66.975 84.8 66.375L82.25 64.05L84.5 62.025L86.825 64.125C87.225 64.475 87.675 64.75 88.175 64.95C88.675 65.15 89.2 65.25 89.75 65.25C91.2 65.25 92.4375 64.7375 93.4625 63.7125C94.4875 62.6875 95 61.45 95 60C95 58.55 94.4875 57.3125 93.4625 56.2875C92.4375 55.2625 91.2 54.75 89.75 54.75C89.2 54.75 88.675 54.85 88.175 55.05C87.675 55.25 87.225 55.525 86.825 55.875L75.2 66.375C74.525 66.975 73.7625 67.4375 72.9125 67.7625C72.0625 68.0875 71.175 68.25 70.25 68.25Z" fill="white"/>
</g>
<defs>
<filter id="filter0_d_1_12" x="0" y="0" width="160" height="160" filterUnits="userSpaceOnUse" color-interpolation-filters="sRGB">
<feFlood flood-opacity="0" result="BackgroundImageFix"/>
<feColorMatrix in="SourceAlpha" type="matrix" values="0 0 0 0 0 0 0 0 0 0 0 0 0 0 0 0 0 0 127 0" result="hardAlpha"/>
<feOffset dy="20"/>
<feGaussianBlur stdDeviation="20"/>
<feComposite in2="hardAlpha" operator="out"/>
<feColorMatrix type="matrix" values="0 0 0 0 0.0823529 0 0 0 0 0.101961 0 0 0 0 0.192157 0 0 0 0.2 0"/>
<feBlend mode="normal" in2="BackgroundImageFix" result="effect1_dropShadow_1_12"/>
<feBlend mode="normal" in="SourceGraphic" in2="effect1_dropShadow_1_12" result="shape"/>
</filter>
</defs>
</svg>
